<?xml version="1.0" encoding="utf-8"?>
<!-- Generator: Adobe Illustrator 16.0.0, SVG Export Plug-In . SVG Version: 6.00 Build 0)  -->
<!DOCTYPE svg PUBLIC "-//W3C//DTD SVG 1.1//EN" "http://www.w3.org/Graphics/SVG/1.1/DTD/svg11.dtd">
<svg version="1.1" id="Layer_1" xmlns="http://www.w3.org/2000/svg" xmlns:xlink="http://www.w3.org/1999/xlink" x="0px" y="0px"
	 width="566.152px" height="249.799px" viewBox="0 0 566.152 249.799" enable-background="new 0 0 566.152 249.799"
	 xml:space="preserve">
<path fill="none" stroke="#0F0F0F" stroke-width="36.8504" stroke-linecap="round" stroke-linejoin="round" stroke-miterlimit="10" d="
	M106.436,89.409"/>
<polyline fill="none" stroke="#282828" stroke-width="36.8504" stroke-linecap="round" stroke-linejoin="round" stroke-miterlimit="10" points="
	323.354,18.425 279.157,231.374 377.48,231.374 "/>
<polyline fill="none" stroke="#FFFFFF" stroke-width="5.6693" stroke-linecap="round" stroke-linejoin="round" stroke-miterlimit="10" points="
	316.928,10.363 272.73,223.312 371.054,223.312 "/>
<g>
	
		<path fill="none" stroke="#A0A0A0" stroke-width="36.8504" stroke-linecap="round" stroke-linejoin="round" stroke-miterlimit="10" d="
		M232.766,160.392"/>
	
		<path fill="none" stroke="#A0A0A0" stroke-width="36.8504" stroke-linecap="round" stroke-linejoin="round" stroke-miterlimit="10" d="
		M227.9,231.374"/>
	
		<polyline fill="none" stroke="#282828" stroke-width="36.8504" stroke-linecap="round" stroke-linejoin="round" stroke-miterlimit="10" points="
		180.71,160.392 247.351,160.392 276.47,18.425 193.384,18.425 148.337,231.374 227.9,231.374 	"/>
</g>
<g>
	
		<path fill="none" stroke="#DDE21E" stroke-width="5.6693" stroke-linecap="round" stroke-linejoin="round" stroke-miterlimit="10" d="
		M226.339,152.329"/>
	
		<path fill="none" stroke="#DDE21E" stroke-width="5.6693" stroke-linecap="round" stroke-linejoin="round" stroke-miterlimit="10" d="
		M221.474,223.312"/>
	
		<polyline fill="none" stroke="#FFFFFF" stroke-width="5.6693" stroke-linecap="round" stroke-linejoin="round" stroke-miterlimit="10" points="
		171.058,152.329 240.924,152.329 270.043,10.363 186.957,10.363 141.911,223.312 221.474,223.312 	"/>
</g>
<g>
	
		<polyline fill="none" stroke="#282828" stroke-width="36.8504" stroke-linecap="round" stroke-linejoin="round" stroke-miterlimit="10" points="
		468.164,18.425 547.728,18.425 502.683,231.374 419.596,231.374 448.715,89.408 517.318,89.408 	"/>
</g>
<g>
	
		<polyline fill="none" stroke="#FFFFFF" stroke-width="5.6693" stroke-linecap="round" stroke-linejoin="round" stroke-miterlimit="10" points="
		461.737,10.363 541.301,10.363 496.256,223.312 413.169,223.312 442.288,81.346 510.892,81.346 	"/>
</g>
<polyline fill="none" stroke="#282828" stroke-width="36.8504" stroke-linecap="round" stroke-linejoin="round" stroke-miterlimit="10" points="
	62.622,18.425 18.425,231.374 101.615,231.374 130.93,89.409 62.622,89.409 "/>
<polyline fill="none" stroke="#FFFFFF" stroke-width="5.6693" stroke-linecap="round" stroke-linejoin="round" stroke-miterlimit="10" points="
	56.195,10.363 11.999,223.312 95.188,223.312 124.503,81.347 56.195,81.347 "/>
<path fill="none" stroke="#DDE21E" stroke-width="5.6693" stroke-linecap="round" stroke-linejoin="round" stroke-miterlimit="10" d="
	M100.009,81.347"/>
</svg>
